<svg id="Capa_1" data-name="Capa 1" xmlns="http://www.w3.org/2000/svg" viewBox="0 0 21.36 32"><defs><style>.cls-1{fill:#fff;}</style></defs><path class="cls-1" d="M19.15,22.25V17.36a8.6,8.6,0,0,0-7.63-8.55V5.07h3v-2h-3V.3h-2V3.07H6.64v2H9.52V8.82a8.59,8.59,0,0,0-7.58,8.54v2.58l-1.59.37V31.7H20.77V22.89ZM9,29.81H7.36V24.72a1.66,1.66,0,0,0-3-.94,1.68,1.68,0,0,0-.28.94v5.09H1.94v-8.2l2-.44L9,20Zm4.92-9.64-1.59-.63v2l1.59.63v7.6h-3.2V18L9,18.35,3.9,19.49V17.28a6.7,6.7,0,0,1,6.53-6.69h.31a6.7,6.7,0,0,1,6.53,6.69V21.5l-1.54-.61V17.7l-1.8-.86Zm5.22,9.64H15.73V22.92l1.22.49,2.2.87Z"/></svg>