<svg id="Capa_1" data-name="Capa 1" xmlns="http://www.w3.org/2000/svg" viewBox="0 0 157.35 32"><defs><style>.cls-1{fill:#fff;}</style></defs><path class="cls-1" d="M19.39,21.44V16.92A8,8,0,0,0,12.33,9V5.56h2.78V3.71H12.33V1.15H10.48V3.71H7.81V5.56h2.67V9a8,8,0,0,0-7,7.9v2.39L2,19.64V30.17H20.88V22Zm-9.39,7H8.48V23.72a1.53,1.53,0,0,0-2.79-.86,1.58,1.58,0,0,0-.26.86v4.71h-2V20.85l1.81-.41L10,19.39Zm4.55-8.91-1.46-.58v1.88l1.46.58v7h-3V17.48l-1.6.35L5.28,18.89V16.84a6.17,6.17,0,0,1,6-6.17h.28a6.17,6.17,0,0,1,6,6.17v3.9l-1.42-.56V17.24l-1.67-.8Zm4.84,8.91H16.22V22.06l1.13.45,2,.81Z"/><path class="cls-1" d="M48.52,5V17.05h-3V9.8l-2.7,7.25H40.49L37.77,9.78v7.27H34.83V5h3.48l3.39,8.37L45.06,5Z"/><path class="cls-1" d="M60.13,7.44v9.61h-3V15.74a3.19,3.19,0,0,1-1.21,1,3.7,3.7,0,0,1-1.7.39,3.79,3.79,0,0,1-2-.49A3.32,3.32,0,0,1,51,15.24a4.84,4.84,0,0,1-.47-2.19V7.44h2.93v5.22a2.05,2.05,0,0,0,.5,1.49,1.73,1.73,0,0,0,1.34.54,1.76,1.76,0,0,0,1.36-.54,2.1,2.1,0,0,0,.5-1.49V7.44Z"/><path class="cls-1" d="M63.91,16.76a3.88,3.88,0,0,1-1.55-1.18,3.12,3.12,0,0,1-.63-1.68h2.91a1.13,1.13,0,0,0,.46.81,1.71,1.71,0,0,0,1,.31A1.39,1.39,0,0,0,67,14.8a.66.66,0,0,0,.3-.56.64.64,0,0,0-.43-.61,8.58,8.58,0,0,0-1.39-.44,12.18,12.18,0,0,1-1.72-.51,3,3,0,0,1-1.19-.84,2.29,2.29,0,0,1-.5-1.56,2.7,2.7,0,0,1,.45-1.51A3.12,3.12,0,0,1,63.84,7.7,5,5,0,0,1,66,7.3a4.23,4.23,0,0,1,2.85.9A3.47,3.47,0,0,1,70,10.57H67.27a1.15,1.15,0,0,0-.44-.79,1.53,1.53,0,0,0-1-.29,1.28,1.28,0,0,0-.79.2.61.61,0,0,0-.28.54.67.67,0,0,0,.44.62,7,7,0,0,0,1.37.41q1.07.28,1.74.54a3,3,0,0,1,1.18.87,2.45,2.45,0,0,1,.53,1.59,2.54,2.54,0,0,1-.48,1.51,3.17,3.17,0,0,1-1.36,1,5.26,5.26,0,0,1-2.06.38A5.7,5.7,0,0,1,63.91,16.76Z"/><path class="cls-1" d="M80.86,13H74.2a2,2,0,0,0,.57,1.37,1.75,1.75,0,0,0,1.25.47,1.53,1.53,0,0,0,1.53-.93h3.14a4.34,4.34,0,0,1-.87,1.71,4.49,4.49,0,0,1-1.58,1.19,5.14,5.14,0,0,1-2.12.43,5.07,5.07,0,0,1-2.51-.61,4.25,4.25,0,0,1-1.72-1.72,5.26,5.26,0,0,1-.62-2.62,5.3,5.3,0,0,1,.61-2.61A4.31,4.31,0,0,1,73.59,7.9a5.59,5.59,0,0,1,5,0A4.18,4.18,0,0,1,80.3,9.56a5,5,0,0,1,.61,2.53A6.48,6.48,0,0,1,80.86,13Zm-3-1.64a1.5,1.5,0,0,0-.52-1.2,2.05,2.05,0,0,0-2.54,0,1.93,1.93,0,0,0-.63,1.22Z"/><path class="cls-1" d="M84.3,16.58a4.34,4.34,0,0,1-1.78-1.72,5.16,5.16,0,0,1-.64-2.62,5.21,5.21,0,0,1,.65-2.61A4.51,4.51,0,0,1,84.32,7.9a5.72,5.72,0,0,1,5.1,0,4.51,4.51,0,0,1,1.79,1.73,5.11,5.11,0,0,1,.66,2.61,5.07,5.07,0,0,1-.67,2.61,4.37,4.37,0,0,1-1.81,1.73,5.28,5.28,0,0,1-2.55.61A5.21,5.21,0,0,1,84.3,16.58Zm4-2.56a2.47,2.47,0,0,0,.6-1.78,2.47,2.47,0,0,0-.58-1.77,2,2,0,0,0-2.85,0,2.52,2.52,0,0,0-.57,1.78A2.6,2.6,0,0,0,85.43,14a1.84,1.84,0,0,0,1.41.62A1.91,1.91,0,0,0,88.27,14Z"/><path class="cls-1" d="M108.43,5l-4.29,12.09h-3.68L96.17,5h3.14l3,9.13,3-9.13Z"/><path class="cls-1" d="M109.87,6a1.46,1.46,0,0,1-.49-1.12,1.49,1.49,0,0,1,.49-1.15,2,2,0,0,1,2.52,0,1.53,1.53,0,0,1,.49,1.15A1.49,1.49,0,0,1,112.39,6a2,2,0,0,1-2.52,0Zm2.73,1.46v9.61h-2.94V7.44Z"/><path class="cls-1" d="M119,7.79a3.38,3.38,0,0,1,1.73-.45v3.11h-.81a2.47,2.47,0,0,0-1.66.48,2.12,2.12,0,0,0-.55,1.66v4.46h-2.94V7.44h2.94V9A4,4,0,0,1,119,7.79Z"/><path class="cls-1" d="M127.46,14.55v2.5H126a3.62,3.62,0,0,1-2.5-.79,3.21,3.21,0,0,1-.9-2.55V9.88H121.4V7.44h1.17V5.1h3V7.44h1.93V9.88h-1.93v3.86a.82.82,0,0,0,.2.62,1,1,0,0,0,.69.19Z"/><path class="cls-1" d="M138.59,7.44v9.61h-3V15.74a3.12,3.12,0,0,1-1.21,1,3.7,3.7,0,0,1-1.7.39,3.76,3.76,0,0,1-1.94-.49,3.28,3.28,0,0,1-1.31-1.42,4.84,4.84,0,0,1-.47-2.19V7.44h2.93v5.22a2.1,2.1,0,0,0,.5,1.49,2,2,0,0,0,2.7,0,2.05,2.05,0,0,0,.5-1.49V7.44Z"/><path class="cls-1" d="M140.68,9.63a4.17,4.17,0,0,1,1.53-1.73,4,4,0,0,1,2.15-.6,3.74,3.74,0,0,1,1.78.41,3.11,3.11,0,0,1,1.18,1.09V7.44h3v9.61h-3V15.69a3.14,3.14,0,0,1-1.2,1.08,3.63,3.63,0,0,1-1.78.42,3.87,3.87,0,0,1-2.13-.62,4.11,4.11,0,0,1-1.53-1.73,5.89,5.89,0,0,1-.56-2.61A5.76,5.76,0,0,1,140.68,9.63Zm6,.87a2.08,2.08,0,0,0-3,0,2.34,2.34,0,0,0-.61,1.73,2.41,2.41,0,0,0,.61,1.74,1.94,1.94,0,0,0,1.49.65,2,2,0,0,0,1.49-.64,2.38,2.38,0,0,0,.61-1.74A2.41,2.41,0,0,0,146.71,10.5Z"/><path class="cls-1" d="M155.35,4.3V17.05H152.4V4.3Z"/><path class="cls-1" d="M35.31,24.32a2.44,2.44,0,0,1,1-1A2.68,2.68,0,0,1,37.65,23a2.53,2.53,0,0,1,1.33.36,2.16,2.16,0,0,1,.87.93V21.06h.72v7.58h-.72V27.39a2.15,2.15,0,0,1-.84,1,2.49,2.49,0,0,1-1.37.37,2.68,2.68,0,0,1-1.38-.36,2.38,2.38,0,0,1-.95-1A3.22,3.22,0,0,1,35,25.83,3.18,3.18,0,0,1,35.31,24.32Zm4.26.33a2,2,0,0,0-.75-.79,2.11,2.11,0,0,0-1-.27,2.16,2.16,0,0,0-1.06.26,1.88,1.88,0,0,0-.75.78,2.53,2.53,0,0,0-.27,1.2A2.6,2.6,0,0,0,36,27a2,2,0,0,0,.75.79,2.06,2.06,0,0,0,1.06.27,2.11,2.11,0,0,0,1-.28,1.91,1.91,0,0,0,.75-.79,2.41,2.41,0,0,0,.28-1.19A2.43,2.43,0,0,0,39.57,24.65Z"/><path class="cls-1" d="M47.25,26.12H42.61a2.21,2.21,0,0,0,.31,1.09,1.81,1.81,0,0,0,.72.68,2.19,2.19,0,0,0,1,.23,2,2,0,0,0,1.17-.34,1.58,1.58,0,0,0,.63-.91h.76a2.37,2.37,0,0,1-.88,1.33,2.63,2.63,0,0,1-1.68.52,2.9,2.9,0,0,1-1.42-.35,2.58,2.58,0,0,1-1-1,3.48,3.48,0,0,1,0-3,2.43,2.43,0,0,1,1-1A2.91,2.91,0,0,1,44.63,23a2.77,2.77,0,0,1,1.4.35,2.44,2.44,0,0,1,.92.94,2.73,2.73,0,0,1,.32,1.31C47.27,25.8,47.26,26,47.25,26.12Zm-1-1.65a1.7,1.7,0,0,0-.71-.67,2.17,2.17,0,0,0-1-.22,2,2,0,0,0-1.37.51,2.05,2.05,0,0,0-.62,1.44h3.93A1.9,1.9,0,0,0,46.29,24.47Z"/><path class="cls-1" d="M54.7,21.48V26.9a1.72,1.72,0,0,1-1.84,1.81,1.82,1.82,0,0,1-1.39-.53A1.92,1.92,0,0,1,51,26.75h.73a1.54,1.54,0,0,0,.29,1,1.24,1.24,0,0,0,1.74,0A1.32,1.32,0,0,0,54,26.9V21.48Z"/><path class="cls-1" d="M57.53,28.37a2.53,2.53,0,0,1-1-1,3.08,3.08,0,0,1-.36-1.52,3,3,0,0,1,.37-1.52,2.53,2.53,0,0,1,1-1,3,3,0,0,1,2.85,0,2.49,2.49,0,0,1,1,1,3.08,3.08,0,0,1,.36,1.52,3,3,0,0,1-.37,1.52,2.52,2.52,0,0,1-1,1,3,3,0,0,1-1.44.35A2.93,2.93,0,0,1,57.53,28.37ZM60,27.85a1.92,1.92,0,0,0,.76-.76A2.43,2.43,0,0,0,61,25.84a2.5,2.5,0,0,0-.28-1.24,1.92,1.92,0,0,0-.76-.76,2.15,2.15,0,0,0-1-.25,2.11,2.11,0,0,0-1,.25,1.78,1.78,0,0,0-.75.76,2.5,2.5,0,0,0-.29,1.24,2.54,2.54,0,0,0,.29,1.25,1.81,1.81,0,0,0,.74.76,2.23,2.23,0,0,0,1,.25A2.27,2.27,0,0,0,60,27.85Z"/><path class="cls-1" d="M63.1,24.32a2.48,2.48,0,0,1,.95-1A2.68,2.68,0,0,1,65.43,23a2.5,2.5,0,0,1,1.38.37,2.2,2.2,0,0,1,.83.94V23h.72v5.6h-.72V27.4a2.25,2.25,0,0,1-.84,1,2.5,2.5,0,0,1-1.38.37,2.64,2.64,0,0,1-1.37-.36,2.51,2.51,0,0,1-.95-1,3.21,3.21,0,0,1-.34-1.52A3.17,3.17,0,0,1,63.1,24.32Zm4.27.33a2,2,0,0,0-1.81-1.06,2.19,2.19,0,0,0-1.06.26,2,2,0,0,0-.75.78,2.53,2.53,0,0,0-.27,1.2A2.6,2.6,0,0,0,63.75,27a2,2,0,0,0,.75.79,2.09,2.09,0,0,0,1.06.27,2.06,2.06,0,0,0,1-.28,2,2,0,0,0,.76-.79,2.52,2.52,0,0,0,.27-1.19A2.54,2.54,0,0,0,67.37,24.65Z"/><path class="cls-1" d="M70,24.32a2.44,2.44,0,0,1,1-1A2.68,2.68,0,0,1,72.36,23a2.49,2.49,0,0,1,1.37.38,2.1,2.1,0,0,1,.83.93V23h.72v8.24h-.72V27.41a2.07,2.07,0,0,1-.83.94,2.56,2.56,0,0,1-1.39.37A2.64,2.64,0,0,1,71,28.36a2.38,2.38,0,0,1-1-1,3.22,3.22,0,0,1-.35-1.52A3.18,3.18,0,0,1,70,24.32Zm4.26.33a2,2,0,0,0-.75-.79,2.11,2.11,0,0,0-1-.27,2.23,2.23,0,0,0-1.07.26,1.92,1.92,0,0,0-.74.78,2.53,2.53,0,0,0-.27,1.2A2.6,2.6,0,0,0,70.67,27a2,2,0,0,0,.74.79,2.18,2.18,0,0,0,2.12,0,1.91,1.91,0,0,0,.75-.79,2.41,2.41,0,0,0,.28-1.19A2.43,2.43,0,0,0,74.28,24.65Z"/><path class="cls-1" d="M81.77,23v5.6h-.72v-1a1.83,1.83,0,0,1-.76.8,2.41,2.41,0,0,1-1.15.27,2.23,2.23,0,0,1-1.64-.62,2.4,2.4,0,0,1-.63-1.8V23h.7v3.19a2,2,0,0,0,.46,1.4,1.63,1.63,0,0,0,1.24.48,1.68,1.68,0,0,0,1.3-.52,2.11,2.11,0,0,0,.48-1.5V23Z"/><path class="cls-1" d="M84.71,21.39l-2.1,1.22v-.55l2.1-1.31ZM84.12,23v5.6h-.71V23Z"/><path class="cls-1" d="M90,23.56a2.42,2.42,0,0,1,.63,1.8v3.28h-.71v-3.2a2,2,0,0,0-.45-1.39,1.65,1.65,0,0,0-1.25-.48,1.69,1.69,0,0,0-1.29.51,2.12,2.12,0,0,0-.48,1.51v3.05h-.72V23h.72v1a1.84,1.84,0,0,1,.77-.79,2.34,2.34,0,0,1,1.14-.27A2.27,2.27,0,0,1,90,23.56Z"/><path class="cls-1" d="M99.66,23l-3.32,8.23h-.75l1.09-2.66L94.38,23h.79l1.91,4.78L98.92,23Z"/><path class="cls-1" d="M104.37,28.47a2.16,2.16,0,0,1-.85-.69,1.91,1.91,0,0,1-.33-1H104a1.48,1.48,0,0,0,.46.91,1.66,1.66,0,0,0,1.2.4,1.71,1.71,0,0,0,1.16-.38,1.21,1.21,0,0,0,.42-.95A1.12,1.12,0,0,0,107,26a1.36,1.36,0,0,0-.58-.42,9.58,9.58,0,0,0-1-.3,8.83,8.83,0,0,1-1.14-.38,1.79,1.79,0,0,1-.72-.57,1.71,1.71,0,0,1-.29-1.06,1.76,1.76,0,0,1,.28-1,1.88,1.88,0,0,1,.81-.68,2.86,2.86,0,0,1,1.2-.25,2.5,2.5,0,0,1,1.6.49,1.86,1.86,0,0,1,.71,1.26h-.78a1.31,1.31,0,0,0-.48-.79,1.93,1.93,0,0,0-2.19,0,1.15,1.15,0,0,0-.43.94,1.09,1.09,0,0,0,.24.73,1.59,1.59,0,0,0,.59.42,9.19,9.19,0,0,0,1,.31,8,8,0,0,1,1.12.38,1.87,1.87,0,0,1,.73.58,1.67,1.67,0,0,1,.3,1,1.84,1.84,0,0,1-.27,1,1.91,1.91,0,0,1-.79.72,2.57,2.57,0,0,1-1.25.28A3,3,0,0,1,104.37,28.47Z"/><path class="cls-1" d="M109.32,24.32a2.41,2.41,0,0,1,1-1,2.68,2.68,0,0,1,1.38-.36,2.5,2.5,0,0,1,1.38.37,2.2,2.2,0,0,1,.83.94V23h.72v5.6h-.72V27.4a2.32,2.32,0,0,1-.84,1,2.5,2.5,0,0,1-1.38.37,2.64,2.64,0,0,1-1.37-.36,2.44,2.44,0,0,1-1-1,3.22,3.22,0,0,1-.35-1.52A3.18,3.18,0,0,1,109.32,24.32Zm4.27.33a2.06,2.06,0,0,0-.76-.79,2.11,2.11,0,0,0-1-.27,2.19,2.19,0,0,0-1.06.26,1.88,1.88,0,0,0-.75.78,2.53,2.53,0,0,0-.27,1.2A2.6,2.6,0,0,0,110,27a2,2,0,0,0,.75.79,2.09,2.09,0,0,0,1.06.27,2.11,2.11,0,0,0,1-.28,2,2,0,0,0,.76-.79,2.52,2.52,0,0,0,.27-1.19A2.54,2.54,0,0,0,113.59,24.65Z"/><path class="cls-1" d="M120.48,23.56a2.38,2.38,0,0,1,.64,1.8v3.28h-.71v-3.2a1.91,1.91,0,0,0-.46-1.39,1.61,1.61,0,0,0-1.24-.48,1.69,1.69,0,0,0-1.29.51,2.12,2.12,0,0,0-.48,1.51v3.05h-.72V23h.72v1a1.81,1.81,0,0,1,.76-.79,2.4,2.4,0,0,1,1.14-.27A2.26,2.26,0,0,1,120.48,23.56Z"/><path class="cls-1" d="M123.64,23.65v3.47a1,1,0,0,0,.19.71,1,1,0,0,0,.69.19h.66v.62h-.77a1.61,1.61,0,0,1-1.13-.35,1.56,1.56,0,0,1-.37-1.17V23.65h-.78V23h.78v-1.4h.73V23h1.54v.61Z"/><path class="cls-1" d="M126.37,24.32a2.48,2.48,0,0,1,.95-1A2.68,2.68,0,0,1,128.7,23a2.5,2.5,0,0,1,1.38.37,2.2,2.2,0,0,1,.83.94V23h.72v5.6h-.72V27.4a2.18,2.18,0,0,1-.84,1,2.5,2.5,0,0,1-1.38.37,2.64,2.64,0,0,1-1.37-.36,2.51,2.51,0,0,1-.95-1,3.21,3.21,0,0,1-.34-1.52A3.17,3.17,0,0,1,126.37,24.32Zm4.27.33a2,2,0,0,0-1.81-1.06,2.19,2.19,0,0,0-1.06.26,1.86,1.86,0,0,0-.74.78,2.42,2.42,0,0,0-.28,1.2A2.49,2.49,0,0,0,127,27a2,2,0,0,0,.74.79,2.09,2.09,0,0,0,1.06.27,2.06,2.06,0,0,0,1-.28,2,2,0,0,0,.76-.79,2.52,2.52,0,0,0,.27-1.19A2.54,2.54,0,0,0,130.64,24.65Z"/><path class="cls-1" d="M140.23,26.94H137l-.62,1.7h-.76l2.61-7.07H139l2.6,7.07h-.75Zm-.22-.6-1.41-3.87-1.41,3.87Z"/><path class="cls-1" d="M147,23.56a2.38,2.38,0,0,1,.64,1.8v3.28H147v-3.2a2,2,0,0,0-.45-1.39,1.65,1.65,0,0,0-1.25-.48,1.69,1.69,0,0,0-1.29.51,2.12,2.12,0,0,0-.48,1.51v3.05h-.72V23h.72v1a1.84,1.84,0,0,1,.77-.79,2.33,2.33,0,0,1,1.13-.27A2.26,2.26,0,0,1,147,23.56Z"/><path class="cls-1" d="M149.26,24.32a2.44,2.44,0,0,1,1-1A2.63,2.63,0,0,1,151.6,23a2.44,2.44,0,0,1,1.37.37,2.16,2.16,0,0,1,.84.94V23h.72v5.6h-.72V27.4a2.27,2.27,0,0,1-.85,1,2.45,2.45,0,0,1-1.38.37,2.61,2.61,0,0,1-1.36-.36,2.46,2.46,0,0,1-1-1,3.21,3.21,0,0,1-.34-1.52A3.17,3.17,0,0,1,149.26,24.32Zm4.27.33a2,2,0,0,0-.75-.79,2.11,2.11,0,0,0-1.05-.27,2.23,2.23,0,0,0-1.07.26,1.92,1.92,0,0,0-.74.78,2.53,2.53,0,0,0-.27,1.2,2.6,2.6,0,0,0,.27,1.21,2,2,0,0,0,.74.79,2.18,2.18,0,0,0,2.12,0,1.91,1.91,0,0,0,.75-.79,2.41,2.41,0,0,0,.28-1.19A2.43,2.43,0,0,0,153.53,24.65Z"/><rect class="cls-1" x="26.5" y="0.85" width="2.16" height="30.17"/></svg>